<svg xmlns="http://www.w3.org/2000/svg" width="224" height="68" viewBox="0 0 224 68">
    <path fill="#FFF" fill-rule="evenodd" d="M208 21h10c2.347-.176 4-1.862 4-5V6c0-2.314-1.653-4-4-4h-40c-2.347 0-4 1.686-4 4v10c0 3.138 1.653 4.824 4 5h10v41c.77 2.314 2.422 4 4 4h12c1.578 0 3.23-1.686 4-4V21zM36 21v41c-.77 2.314-2.422 4-4 4H20c-1.578 0-3.23-1.686-4-4V21H6c-2.347-.176-4-1.862-4-5V6c0-2.314 1.653-4 4-4h40c2.347 0 4 1.686 4 4v10c0 3.138-1.653 4.824-4 5H36zM59 2h10c2.388 0 4 1.686 4 4v56c0 2.314-1.612 4-4 4H59c-2.388 0-4-1.686-4-4V6c0-2.314 1.612-4 4-4zm112 60c0 2.314-1.648 4-4 4h-13c-.769 0-1.804-.496-2-1l-18-22v19c.2 2.314-1.448 4-4 4h-13c-.569 0-1.604-.496-2-1L97 43v19c.4 2.314-1.248 4-4 4H83c-2.352 0-4-1.686-4-4V6c0-2.314 1.648-4 4-4h13c.695 0 1.81.587 2 1l18 26V6c-.2-2.314 1.448-4 4-4h13c.495 0 1.61.587 2 1l18 26V6c-.4-2.314 1.248-4 4-4h10c2.352 0 4 1.686 4 4v56z"/>
</svg>
